<svg width="80" height="80" viewBox="0 0 80 80" fill="none" xmlns="http://www.w3.org/2000/svg">
<circle cx="40" cy="40" r="40" fill="white"/>
<path d="M36.0765 47.024C37.9112 44.8267 39.2232 43.2373 40.0125 42.256C40.8232 41.2533 41.4845 40.3147 41.9965 39.44C42.5512 38.5013 42.9458 37.6053 43.1805 36.752C43.4365 35.8773 43.5645 34.992 43.5645 34.096C43.5645 33.136 43.3725 32.3147 42.9885 31.632C42.6045 30.928 42.0925 30.3947 41.4525 30.032C40.8338 29.6693 40.1618 29.488 39.4365 29.488C38.0925 29.488 37.0045 29.9787 36.1725 30.96C35.3618 31.9413 34.9565 33.1787 34.9565 34.672C34.5725 34.1387 34.3805 33.4347 34.3805 32.56C34.3805 31.7493 34.5832 30.96 34.9885 30.192C35.4152 29.424 36.0445 28.8053 36.8765 28.336C37.7085 27.8453 38.7112 27.6 39.8845 27.6C40.9725 27.6 41.9645 27.856 42.8605 28.368C43.7778 28.88 44.5032 29.6053 45.0365 30.544C45.5912 31.4827 45.8685 32.5707 45.8685 33.808C45.8685 35.8133 45.0685 37.8933 43.4685 40.048C41.9752 42.096 40.0765 44.4107 37.7725 46.992L36.8125 48.08H43.3085C44.4178 48.08 45.2498 47.92 45.8045 47.6C46.3592 47.2587 46.7325 46.928 46.9245 46.608L46.3165 50H33.5805L36.0765 47.024Z" fill="#0B0D17"/>
</svg>
