<svg width="80" height="80" viewBox="0 0 80 80" fill="none" xmlns="http://www.w3.org/2000/svg">
<circle opacity="0.25" cx="40" cy="40" r="39.5" stroke="white"/>
<path d="M41.3245 37.52C42.9672 37.9253 44.2152 38.6827 45.0685 39.792C45.9432 40.88 46.3805 42.1067 46.3805 43.472C46.3805 44.688 46.0925 45.8293 45.5165 46.896C44.9618 47.9413 44.1405 48.784 43.0525 49.424C41.9858 50.064 40.7272 50.384 39.2765 50.384C38.1458 50.384 37.1858 50.2347 36.3965 49.936C35.6285 49.6373 34.8392 49.232 34.0285 48.72V46.16C34.3912 46.9493 35.0525 47.6427 36.0125 48.24C36.9725 48.8373 38.0392 49.136 39.2125 49.136C40.7698 49.136 41.9645 48.6667 42.7965 47.728C43.6498 46.768 44.0765 45.584 44.0765 44.176C44.0765 42.512 43.5645 41.232 42.5405 40.336C41.5165 39.44 40.2258 38.992 38.6685 38.992H38.0605V38.48C39.4685 37.9893 40.6098 37.296 41.4845 36.4C42.3592 35.4827 42.7965 34.4267 42.7965 33.232C42.7965 32.144 42.4765 31.2587 41.8365 30.576C41.2178 29.872 40.3538 29.52 39.2445 29.52C38.5618 29.52 37.9218 29.6907 37.3245 30.032C36.7272 30.3733 36.2365 30.8747 35.8525 31.536C35.4898 32.176 35.3085 32.944 35.3085 33.84C34.9245 33.328 34.7325 32.6773 34.7325 31.888C34.7325 30.5867 35.2125 29.552 36.1725 28.784C37.1325 27.9947 38.2845 27.6 39.6285 27.6C41.1005 27.6 42.3378 28.0267 43.3405 28.88C44.3432 29.7333 44.8445 30.8853 44.8445 32.336C44.8445 33.2747 44.5245 34.224 43.8845 35.184C43.2658 36.144 42.4125 36.9227 41.3245 37.52Z" fill="white"/>
</svg>
